<?xml version="1.0" standalone="no"?>
<!DOCTYPE svg PUBLIC "-//W3C//DTD SVG 20010904//EN"
 "http://www.w3.org/TR/2001/REC-SVG-20010904/DTD/svg10.dtd">
<svg version="1.0" xmlns="http://www.w3.org/2000/svg"
 width="770.000000pt" height="770.000000pt" viewBox="0 0 770.000000 770.000000"
 preserveAspectRatio="xMidYMid meet">
<metadata>
Created by potrace 1.14, written by Peter Selinger 2001-2017
</metadata>
<g transform="translate(0.000000,770.000000) scale(0.100000,-0.100000)"
fill="#000000" stroke="none">
<path d="M3579 7696 c-2 -2 -39 -6 -81 -10 -43 -4 -83 -8 -90 -11 -7 -2 -31
-6 -53 -9 -97 -13 -320 -67 -360 -89 -11 -6 -20 -9 -20 -8 0 3 -27 -6 -110
-36 -97 -36 -312 -143 -420 -211 -249 -155 -532 -421 -697 -652 -54 -76 -98
-142 -98 -146 0 -3 -8 -18 -19 -32 -60 -86 -161 -306 -220 -477 -70 -206 -110
-410 -126 -635 -2 -30 -4 -1057 -4 -2282 l-1 -2228 -320 0 -320 0 0 -385 0
-385 3210 0 3210 0 0 385 0 385 -410 0 -410 0 -1 2223 c0 1222 -2 2251 -4
2287 -6 97 -18 190 -40 315 -57 311 -212 677 -399 940 -167 237 -407 475 -628
626 -331 227 -676 359 -1093 420 -72 10 -487 23 -496 15z"/>
</g>
</svg>
