<?xml version="1.0" standalone="no"?>
<!DOCTYPE svg PUBLIC "-//W3C//DTD SVG 20010904//EN"
 "http://www.w3.org/TR/2001/REC-SVG-20010904/DTD/svg10.dtd">
<svg version="1.0" xmlns="http://www.w3.org/2000/svg"
 width="217.000000pt" height="217.000000pt" viewBox="0 0 217.000000 217.000000"
 preserveAspectRatio="xMidYMid meet">
<metadata>
Created by potrace 1.14, written by Peter Selinger 2001-2017
</metadata>
<g transform="translate(0.000000,217.000000) scale(0.100000,-0.100000)"
fill="#000000" stroke="none">
<path d="M1087 2164 c-1 -1 -31 -4 -67 -7 -80 -7 -108 -13 -179 -37 -261 -88
-467 -340 -498 -610 -4 -30 -7 -349 -7 -708 l0 -652 -52 0 c-63 0 -84 -19 -84
-78 0 -35 4 -43 27 -55 23 -10 192 -13 872 -12 l843 1 20 24 c15 18 18 34 14
58 -8 52 -22 62 -82 62 -36 0 -54 4 -55 13 0 6 -2 316 -4 687 -1 371 -6 690
-10 709 -13 66 -57 174 -97 241 -94 157 -261 284 -438 334 -48 14 -196 36
-203 30z"/>
</g>
</svg>
